<?xml version="1.0" encoding="utf-8"?>
<!-- Generator: Adobe Illustrator 19.2.1, SVG Export Plug-In . SVG Version: 6.00 Build 0)  -->
<svg version="1.1" id="レイヤー_1" xmlns="http://www.w3.org/2000/svg" xmlns:xlink="http://www.w3.org/1999/xlink" x="0px"
	 y="0px" viewBox="0 0 617.5 566.3" style="enable-background:new 0 0 617.5 566.3;" xml:space="preserve">
<style type="text/css">
	.st0{fill:none;stroke:#9FA0A0;stroke-miterlimit:10;}
	.st1{fill:none;stroke:#9FA0A0;stroke-width:4;stroke-miterlimit:10;}
	.st2{fill:none;stroke:#595757;stroke-width:5;stroke-linecap:round;stroke-miterlimit:10;}
	.st3{fill:none;stroke:#595757;stroke-width:5;stroke-linecap:square;stroke-miterlimit:10;}
	.st4{display:none;}
	.st5{display:inline;}
	.st6{font-family:'MS-Gothic';}
	.st7{font-size:19px;}
</style>
<g id="グリッド">
	<line class="st0" x1="2.7" y1="53.4" x2="615" y2="53.4"/>
	<line class="st0" x1="615" y1="104.5" x2="2.7" y2="104.5"/>
	<line class="st0" x1="2.7" y1="155.5" x2="615" y2="155.5"/>
	<line class="st0" x1="615" y1="206.5" x2="2.7" y2="206.5"/>
	<line class="st1" x1="2.7" y1="257.5" x2="615" y2="257.5"/>
	<line class="st0" x1="615" y1="308.6" x2="2.7" y2="308.6"/>
	<line class="st0" x1="2.7" y1="359.6" x2="615" y2="359.6"/>
	<line class="st0" x1="615" y1="410.6" x2="2.7" y2="410.6"/>
	<line class="st0" x1="2.7" y1="461.6" x2="615" y2="461.6"/>
	<line class="st1" x1="308.9" y1="2.4" x2="308.9" y2="512.6"/>
	<line class="st0" x1="257.9" y1="2.4" x2="257.9" y2="512.6"/>
	<line class="st0" x1="206.8" y1="512.6" x2="206.8" y2="2.4"/>
	<line class="st0" x1="155.8" y1="2.4" x2="155.8" y2="512.6"/>
	<line class="st0" x1="104.8" y1="512.6" x2="104.8" y2="2.4"/>
	<line class="st0" x1="53.8" y1="2.4" x2="53.8" y2="512.6"/>
	<line class="st0" x1="564" y1="2.4" x2="564" y2="512.6"/>
	<line class="st0" x1="513" y1="512.6" x2="513" y2="2.4"/>
	<line class="st0" x1="462" y1="2.4" x2="462" y2="512.6"/>
	<line class="st0" x1="410.9" y1="2.4" x2="410.9" y2="512.6"/>
	<line class="st0" x1="359.9" y1="512.6" x2="359.9" y2="2.4"/>
	<line class="st2" x1="169.6" y1="512.6" x2="233.9" y2="563.7"/>
	<line class="st2" x1="450.4" y1="512.6" x2="386.5" y2="563.7"/>
	<line class="st2" x1="233.9" y1="563.7" x2="386.5" y2="563.7"/>
	<line class="st3" x1="2.7" y1="512.6" x2="615" y2="512.6"/>
	<line class="st3" x1="615" y1="512.6" x2="615" y2="2.4"/>
	<line class="st3" x1="2.7" y1="2.4" x2="615" y2="2.4"/>
	<line class="st3" x1="2.7" y1="2.4" x2="2.7" y2="512.6"/>
</g>
<g id="センサ" class="st4">
	<text transform="matrix(1 0 0 1 53.7211 53.459)" class="st5 st6 st7">0</text>
	<text transform="matrix(1 0 0 1 53.7211 104.4824)" class="st5 st6 st7">1</text>
	<text transform="matrix(1 0 0 1 53.7211 155.5061)" class="st5 st6 st7">2</text>
	<text transform="matrix(1 0 0 1 53.7212 206.5294)" class="st5 st6 st7">3</text>
	<text transform="matrix(1 0 0 1 53.7213 257.5533)" class="st5 st6 st7">4</text>
	<text transform="matrix(1 0 0 1 53.7213 308.5767)" class="st5 st6 st7">5</text>
	<text transform="matrix(1 0 0 1 53.7213 359.6003)" class="st5 st6 st7">6</text>
	<text transform="matrix(1 0 0 1 53.7214 410.6237)" class="st5 st6 st7">7</text>
	<text transform="matrix(1 0 0 1 53.7213 461.6479)" class="st5 st6 st7">8</text>
	<text transform="matrix(1 0 0 1 104.7446 53.4589)" class="st5 st6 st7">9</text>
	<text transform="matrix(1 0 0 1 104.7447 104.4823)" class="st5 st6 st7">10</text>
	<text transform="matrix(1 0 0 1 104.7447 155.5059)" class="st5 st6 st7">11</text>
	<text transform="matrix(1 0 0 1 104.7449 206.5293)" class="st5 st6 st7">12</text>
	<text transform="matrix(1 0 0 1 104.7449 257.553)" class="st5 st6 st7">13</text>
	<text transform="matrix(1 0 0 1 104.7449 308.5766)" class="st5 st6 st7">14</text>
	<text transform="matrix(1 0 0 1 104.7449 359.6002)" class="st5 st6 st7">15</text>
	<text transform="matrix(1 0 0 1 104.7449 410.6236)" class="st5 st6 st7">16</text>
	<text transform="matrix(1 0 0 1 104.7449 461.6478)" class="st5 st6 st7">17</text>
	<text transform="matrix(1 0 0 1 155.7679 53.4586)" class="st5 st6 st7">18</text>
	<text transform="matrix(1 0 0 1 155.7679 104.4821)" class="st5 st6 st7">19</text>
	<text transform="matrix(1 0 0 1 155.7679 155.5056)" class="st5 st6 st7">20</text>
	<text transform="matrix(1 0 0 1 155.768 206.5291)" class="st5 st6 st7">21</text>
	<text transform="matrix(1 0 0 1 155.7681 257.5529)" class="st5 st6 st7">22</text>
	<text transform="matrix(1 0 0 1 155.7681 308.5764)" class="st5 st6 st7">23</text>
	<text transform="matrix(1 0 0 1 155.7681 359.5999)" class="st5 st6 st7">24</text>
	<text transform="matrix(1 0 0 1 155.7682 410.6234)" class="st5 st6 st7">25</text>
	<text transform="matrix(1 0 0 1 155.7681 461.6476)" class="st5 st6 st7">26</text>
	<text transform="matrix(1 0 0 1 206.7914 53.4585)" class="st5 st6 st7">27</text>
	<text transform="matrix(1 0 0 1 206.7915 104.4818)" class="st5 st6 st7">28</text>
	<text transform="matrix(1 0 0 1 206.7915 155.5056)" class="st5 st6 st7">29</text>
	<text transform="matrix(1 0 0 1 206.7916 206.529)" class="st5 st6 st7">30</text>
	<text transform="matrix(1 0 0 1 206.7916 257.5528)" class="st5 st6 st7">31</text>
	<text transform="matrix(1 0 0 1 206.7917 308.5761)" class="st5 st6 st7">32</text>
	<text transform="matrix(1 0 0 1 206.7917 359.5998)" class="st5 st6 st7">33</text>
	<text transform="matrix(1 0 0 1 206.7918 410.6231)" class="st5 st6 st7">34</text>
	<text transform="matrix(1 0 0 1 206.7916 461.6473)" class="st5 st6 st7">35</text>
	<text transform="matrix(1 0 0 1 257.8151 53.4583)" class="st5 st6 st7">36</text>
	<text transform="matrix(1 0 0 1 257.8152 104.4818)" class="st5 st6 st7">37</text>
	<text transform="matrix(1 0 0 1 257.8152 155.5053)" class="st5 st6 st7">38</text>
	<text transform="matrix(1 0 0 1 257.8153 206.5287)" class="st5 st6 st7">39</text>
	<text transform="matrix(1 0 0 1 257.8153 257.5526)" class="st5 st6 st7">40</text>
	<text transform="matrix(1 0 0 1 257.8154 308.576)" class="st5 st6 st7">41</text>
	<text transform="matrix(1 0 0 1 257.8154 359.5996)" class="st5 st6 st7">42</text>
	<text transform="matrix(1 0 0 1 257.8154 410.623)" class="st5 st6 st7">43</text>
	<text transform="matrix(1 0 0 1 257.8153 461.6472)" class="st5 st6 st7">44</text>
	<text transform="matrix(1 0 0 1 308.8387 53.4582)" class="st5 st6 st7">45</text>
	<text transform="matrix(1 0 0 1 308.8387 104.4815)" class="st5 st6 st7">46</text>
	<text transform="matrix(1 0 0 1 308.8387 155.5052)" class="st5 st6 st7">47</text>
	<text transform="matrix(1 0 0 1 308.8388 206.5285)" class="st5 st6 st7">48</text>
	<text transform="matrix(1 0 0 1 308.8389 257.5525)" class="st5 st6 st7">49</text>
	<text transform="matrix(1 0 0 1 308.8389 308.5759)" class="st5 st6 st7">50</text>
	<text transform="matrix(1 0 0 1 308.8389 359.5995)" class="st5 st6 st7">51</text>
	<text transform="matrix(1 0 0 1 308.839 410.6229)" class="st5 st6 st7">52</text>
	<text transform="matrix(1 0 0 1 308.8389 461.6471)" class="st5 st6 st7">53</text>
	<text transform="matrix(1 0 0 1 359.8047 53.4579)" class="st5 st6 st7">54</text>
	<text transform="matrix(1 0 0 1 359.8048 104.4814)" class="st5 st6 st7">55</text>
	<text transform="matrix(1 0 0 1 359.8048 155.505)" class="st5 st6 st7">56</text>
	<text transform="matrix(1 0 0 1 359.8048 206.5285)" class="st5 st6 st7">57</text>
	<text transform="matrix(1 0 0 1 359.8049 257.5522)" class="st5 st6 st7">58</text>
	<text transform="matrix(1 0 0 1 359.805 308.5757)" class="st5 st6 st7">59</text>
	<text transform="matrix(1 0 0 1 359.805 359.5992)" class="st5 st6 st7">60</text>
	<text transform="matrix(1 0 0 1 359.805 410.6227)" class="st5 st6 st7">61</text>
	<text transform="matrix(1 0 0 1 359.8049 461.6469)" class="st5 st6 st7">62</text>
	<text transform="matrix(1 0 0 1 410.8283 53.4579)" class="st5 st6 st7">63</text>
	<text transform="matrix(1 0 0 1 410.8283 104.4813)" class="st5 st6 st7">64</text>
	<text transform="matrix(1 0 0 1 410.8283 155.5049)" class="st5 st6 st7">65</text>
	<text transform="matrix(1 0 0 1 410.8285 206.5283)" class="st5 st6 st7">66</text>
	<text transform="matrix(1 0 0 1 410.8285 257.5521)" class="st5 st6 st7">67</text>
	<text transform="matrix(1 0 0 1 410.8285 308.5754)" class="st5 st6 st7">68</text>
	<text transform="matrix(1 0 0 1 410.8285 359.5992)" class="st5 st6 st7">69</text>
	<text transform="matrix(1 0 0 1 410.8286 410.6226)" class="st5 st6 st7">70</text>
	<text transform="matrix(1 0 0 1 410.8285 461.6468)" class="st5 st6 st7">71</text>
	<text transform="matrix(1 0 0 1 461.9096 53.459)" class="st5 st6 st7">72</text>
	<text transform="matrix(1 0 0 1 461.9097 104.4825)" class="st5 st6 st7">73</text>
	<text transform="matrix(1 0 0 1 461.9097 155.5061)" class="st5 st6 st7">74</text>
	<text transform="matrix(1 0 0 1 461.9097 206.5294)" class="st5 st6 st7">75</text>
	<text transform="matrix(1 0 0 1 461.9098 257.5533)" class="st5 st6 st7">76</text>
	<text transform="matrix(1 0 0 1 461.9099 308.5767)" class="st5 st6 st7">77</text>
	<text transform="matrix(1 0 0 1 461.9099 359.6003)" class="st5 st6 st7">78</text>
	<text transform="matrix(1 0 0 1 461.9099 410.6237)" class="st5 st6 st7">79</text>
	<text transform="matrix(1 0 0 1 461.9098 461.6479)" class="st5 st6 st7">80</text>
	<text transform="matrix(1 0 0 1 512.9332 104.4823)" class="st5 st6 st7">81</text>
	<text transform="matrix(1 0 0 1 512.9332 155.5059)" class="st5 st6 st7">82</text>
	<text transform="matrix(1 0 0 1 512.9333 206.5293)" class="st5 st6 st7">83</text>
	<text transform="matrix(1 0 0 1 512.9335 257.5532)" class="st5 st6 st7">84</text>
	<text transform="matrix(1 0 0 1 512.9335 308.5766)" class="st5 st6 st7">85</text>
	<text transform="matrix(1 0 0 1 512.9335 359.6002)" class="st5 st6 st7">86</text>
	<text transform="matrix(1 0 0 1 512.9335 410.6236)" class="st5 st6 st7">87</text>
	<text transform="matrix(1 0 0 1 512.9335 461.6478)" class="st5 st6 st7">88</text>
	<text transform="matrix(1 0 0 1 563.9573 104.4812)" class="st5 st6 st7">89</text>
	<text transform="matrix(1 0 0 1 563.9573 155.5048)" class="st5 st6 st7">90</text>
	<text transform="matrix(1 0 0 1 563.9575 206.5282)" class="st5 st6 st7">91</text>
	<text transform="matrix(1 0 0 1 563.9576 257.5521)" class="st5 st6 st7">92</text>
	<text transform="matrix(1 0 0 1 563.9576 308.5754)" class="st5 st6 st7">93</text>
	<text transform="matrix(1 0 0 1 563.9576 359.5991)" class="st5 st6 st7">94</text>
	<text transform="matrix(1 0 0 1 563.9576 410.6225)" class="st5 st6 st7">95</text>
	<text transform="matrix(1 0 0 1 563.9576 461.6467)" class="st5 st6 st7">96</text>
</g>
</svg>
